<?xml version="1.0" standalone="no"?>
<!DOCTYPE svg PUBLIC "-//W3C//DTD SVG 20010904//EN"
 "http://www.w3.org/TR/2001/REC-SVG-20010904/DTD/svg10.dtd">
<svg version="1.0" xmlns="http://www.w3.org/2000/svg"
 width="2700.000000pt" height="3601.000000pt" viewBox="0 0 2700.000000 3601.000000"
 preserveAspectRatio="xMidYMid meet">

<g transform="translate(0.000000,3601.000000) scale(0.100000,-0.100000)"
fill="#000000" stroke="none">
<path d="M8902 25404 c-44 -85 -8115 -15228 -8149 -15291 l-45 -83 5431 0
c3317 0 5431 4 5431 9 0 5 -279 605 -620 1333 l-619 1323 -283 2 c-156 2
-1311 9 -2567 18 -1256 8 -2285 16 -2286 17 -2 2 835 1610 1859 3575 1023
1965 1864 3569 1867 3565 4 -4 1144 -2216 2534 -4917 1390 -2701 2530 -4913
2534 -4918 4 -4 725 -6 1603 -5 l1596 3 -4129 7684 c-2271 4227 -4133 7689
-4138 7694 -6 6 -13 2 -19 -9z"/>
<path d="M17538 20220 c-1538 -3 -2799 -8 -2803 -12 -4 -4 398 -798 893 -1765
l901 -1758 268 3 c147 2 606 7 1018 12 2460 31 4999 20 5040 -22 14 -13 -81
-265 -154 -411 -382 -757 -1287 -1765 -2210 -2461 -706 -532 -1397 -855 -1889
-883 -56 -3 -101 -9 -100 -13 2 -3 235 -470 519 -1036 283 -566 582 -1166 663
-1332 141 -289 149 -303 172 -298 47 12 412 181 649 301 2379 1203 4276 3240
5200 5585 516 1309 692 2662 509 3905 -14 93 -28 172 -31 175 -16 16 -3351 20
-8645 10z"/>
<path d="M3901 7458 c-10 -24 -188 -433 -395 -910 -207 -477 -376 -869 -376
-872 0 -4 89 -6 198 -6 l197 0 294 680 c162 374 297 680 300 680 4 0 139 -306
301 -680 l294 -680 199 0 c155 0 198 3 194 13 -8 20 -736 1697 -764 1760 l-26
57 -199 0 -199 0 -18 -42z"/>
<path d="M5330 7315 l0 -185 638 0 c546 0 646 -2 690 -15 171 -51 191 -240 34
-313 l-57 -27 -652 -3 -653 -3 0 -184 0 -185 275 0 275 0 428 -365 427 -364
278 -1 c152 0 277 2 277 4 0 2 -189 166 -421 363 l-420 358 63 2 c294 12 455
71 554 205 66 90 86 159 91 319 4 105 2 149 -11 200 -38 146 -108 241 -223
302 -141 73 -108 71 -890 74 l-703 4 0 -186z"/>
<path d="M7530 7315 l0 -185 370 0 370 0 0 -730 0 -730 180 0 180 0 0 730 0
730 365 0 365 0 0 185 0 185 -915 0 -915 0 0 -185z"/>
<path d="M10892 7489 c-133 -22 -233 -72 -309 -152 -90 -96 -127 -207 -127
-387 0 -287 118 -453 371 -522 72 -19 113 -22 503 -28 310 -5 435 -10 462 -20
160 -57 169 -249 15 -316 -39 -18 -85 -19 -699 -22 l-658 -3 0 -185 0 -185
698 3 c767 4 738 2 880 68 120 56 211 176 241 318 6 29 11 102 11 161 0 290
-115 454 -367 523 -72 20 -112 22 -503 28 -371 6 -431 9 -472 24 -84 31 -129
106 -115 191 8 52 34 82 95 112 l57 28 653 3 652 3 0 184 0 185 -667 -1 c-368
-1 -692 -5 -721 -10z"/>
<path d="M13281 7458 c-10 -24 -188 -433 -395 -910 -207 -477 -376 -869 -376
-872 0 -4 89 -6 198 -6 l197 0 294 680 c162 374 297 680 300 680 4 0 139 -306
301 -680 l294 -680 199 0 c155 0 198 3 194 13 -8 20 -736 1697 -764 1760 l-26
57 -199 0 -199 0 -18 -42z"/>
<path d="M14720 6585 l0 -915 185 0 185 0 2 635 3 635 543 -635 544 -635 184
0 184 0 0 915 0 915 -180 0 -180 0 -2 -636 -3 -635 -544 635 -543 636 -189 0
-189 0 0 -915z"/>
<path d="M18005 7494 c-11 -2 -45 -9 -75 -15 -144 -28 -281 -130 -339 -252
-64 -133 -66 -156 -66 -642 0 -388 2 -448 18 -509 52 -206 167 -324 372 -383
54 -16 131 -18 748 -21 l687 -3 0 491 0 490 -180 0 -180 0 0 -305 0 -306 -462
3 c-453 3 -464 3 -503 25 -51 27 -89 67 -112 118 -16 36 -18 78 -21 378 -3
285 -1 346 13 392 18 64 61 117 119 148 41 22 44 22 684 25 l642 3 0 184 0
185 -662 -1 c-365 -1 -672 -3 -683 -5z"/>
<path d="M21900 7315 l0 -185 370 0 370 0 0 -730 0 -730 180 0 180 0 0 730 0
730 365 0 365 0 0 185 0 185 -915 0 -915 0 0 -185z"/>
</g>
</svg>
