<svg xmlns="http://www.w3.org/2000/svg" width="112" height="29" viewBox="0 0 112 29"><defs><style>.a{fill:#f6b519;}.b{fill:#ed3e24;}</style></defs><title>Artboard 13tusby ICON</title><polygon class="a" points="20.69 11.45 24.11 5.45 17.26 5.45 20.69 11.45"/><polygon class="a" points="34.62 11.45 38.05 5.45 31.19 5.45 34.62 11.45"/><polygon class="b" points="27.65 23.67 31.08 17.68 24.23 17.68 27.65 23.67"/><polygon class="b" points="27.65 5.45 24.23 17.68 31.08 17.68 27.65 5.45"/><path class="b" d="M48.94,9.59h-4V7.26H55.58V9.59H51.52V19.88H48.94Z"/><path class="b" d="M55.54,10.41h2.58v5.51a1.78,1.78,0,1,0,3.56,0V10.41h2.58v5.3a4.36,4.36,0,1,1-8.72,0Z"/><path class="b" d="M66.69,16.71A3.65,3.65,0,0,0,69.34,18c.69,0,1.21-.27,1.21-.79s-.27-.55-1-.86l-1-.42C66.82,15.21,66,14.43,66,13c0-1.77,1.41-2.83,3.48-2.83a4.39,4.39,0,0,1,3.4,1.42l-1.3,1.59a3,3,0,0,0-2.12-.9c-.63,0-1,.23-1,.67s.25.53,1,.84l.92.38C72.17,15,73,15.69,73,17.09a2.65,2.65,0,0,1-1,2.22,4.21,4.21,0,0,1-2.64.8,4.76,4.76,0,0,1-3.92-1.84Z"/><path class="b" d="M79.88,20.11a3.65,3.65,0,0,1-3-1.4v1.17H74.47V5.54h2.58v5.79a3.69,3.69,0,0,1,2.83-1.13,4.65,4.65,0,0,1,4.59,5A4.64,4.64,0,0,1,79.88,20.11Zm-.48-7.57A2.37,2.37,0,0,0,77,15.16a2.36,2.36,0,0,0,2.39,2.6,2.43,2.43,0,0,0,2.45-2.62A2.44,2.44,0,0,0,79.4,12.54Z"/><path class="b" d="M95,10.41,90.48,20.7c-.86,2-2,2.85-3.77,2.85A6.21,6.21,0,0,1,85,23.32V21.16c.6.06,1,.08,1.11.08a1.89,1.89,0,0,0,2-1.28l.29-.65-3.63-8.9h2.73l2.32,6.22,2.46-6.22Z"/></svg>